<?xml version="1.0" encoding="iso-8859-1" standalone="yes"?><!-- Generator: Adobe Illustrator 19.0.0, SVG Export Plug-In . SVG Version: 6.00 Build 0)  --><svg xmlns="http://www.w3.org/2000/svg" xmlns:xlink="http://www.w3.org/1999/xlink" version="1.1" id="Capa_1" x="0px" y="0px" viewBox="0 0 55.753 55.753" style="enable-background:new 0 0 55.753 55.753;zoom: 1;" xml:space="preserve"><g><path d="M12.745,23.915 c0.283,-0.282 0.59,-0.52 0.913,-0.727 L35.266,1.581 c2.108,-2.107 5.528,-2.108 7.637,0.001 c2.109,2.108 2.109,5.527 0,7.637 L24.294,27.828 l18.705,18.706 c2.109,2.108 2.109,5.526 0,7.637 c-1.055,1.056 -2.438,1.582 -3.818,1.582 s-2.764,-0.526 -3.818,-1.582 L13.658,32.464 c-0.323,-0.207 -0.632,-0.445 -0.913,-0.727 c-1.078,-1.078 -1.598,-2.498 -1.572,-3.911 C11.147,26.413 11.667,24.994 12.745,23.915  z " fill="white"></path></g><g></g><g></g><g></g><g></g><g></g><g></g><g></g><g></g><g></g><g></g><g></g><g></g><g></g><g></g><g></g></svg>